<svg width="24" height="21" viewBox="0 0 24 21" fill="none" xmlns="http://www.w3.org/2000/svg">
<path d="M20.9891 2.61183L20.2945 3.33122L20.2948 3.33154L20.9891 2.61183ZM16.9584 1V2V1ZM12.9277 2.61183L13.6221 3.33138L13.6223 3.33122L12.9277 2.61183ZM11.8293 3.67183L11.1349 4.39138C11.5224 4.76531 12.1363 4.76531 12.5238 4.39138L11.8293 3.67183ZM10.731 2.61183L10.0366 3.33138V3.33138L10.731 2.61183ZM2.66957 10.3918L1.97514 11.1114H1.97514L2.66957 10.3918ZM11.8293 19.2318L11.1349 19.9514C11.5224 20.3253 12.1363 20.3253 12.5238 19.9514L11.8293 19.2318ZM20.9891 10.3918L20.2948 9.67211L20.2947 9.67227L20.9891 10.3918ZM21.6837 1.89243C21.0601 1.2903 20.3216 0.814448 19.5112 0.490396L18.7686 2.34742C19.3414 2.5765 19.8597 2.91136 20.2945 3.33122L21.6837 1.89243ZM19.5112 0.490396C18.7009 0.166365 17.8335 0 16.9584 0V2C17.5805 2 18.1957 2.11833 18.7686 2.34742L19.5112 0.490396ZM16.9584 0C16.0832 0 15.2159 0.166365 14.4056 0.490396L15.1482 2.34742C15.7211 2.11833 16.3363 2 16.9584 2V0ZM14.4056 0.490396C13.5952 0.814448 12.8567 1.2903 12.2331 1.89243L13.6223 3.33122C14.0571 2.91136 14.5753 2.5765 15.1482 2.34742L14.4056 0.490396ZM12.2332 1.89227L11.1349 2.95227L12.5238 4.39138L13.6221 3.33138L12.2332 1.89227ZM12.5238 2.95227L11.4254 1.89227L10.0366 3.33138L11.1349 4.39138L12.5238 2.95227ZM11.4254 1.89227C10.1664 0.67717 8.46607 0.000534773 6.70028 0.000534773V2.00053C7.95812 2.00053 9.15759 2.4831 10.0366 3.33138L11.4254 1.89227ZM6.70028 0.000534773C4.9345 0.000534773 3.23419 0.67717 1.97514 1.89227L3.36401 3.33138C4.24298 2.4831 5.44245 2.00053 6.70028 2.00053V0.000534773ZM1.97514 1.89227C0.714878 3.10854 0 4.76588 0 6.50183H2C2 5.31971 2.48625 4.1785 3.36401 3.33138L1.97514 1.89227ZM0 6.50183C0 8.23777 0.714878 9.89511 1.97514 11.1114L3.36401 9.67227C2.48625 8.82515 2 7.68394 2 6.50183H0ZM21.6834 11.1115C22.3074 10.5096 22.8043 9.79302 23.1441 9.0017L21.3063 8.21267C21.0729 8.75626 20.7298 9.25251 20.2948 9.67211L21.6834 11.1115ZM23.1441 9.0017C23.4838 8.21029 23.6592 7.36071 23.6592 6.50183H21.6592C21.6592 7.08792 21.5396 7.66916 21.3063 8.21267L23.1441 9.0017ZM23.6592 6.50183C23.6592 5.64294 23.4838 4.79336 23.1441 4.00196L21.3063 4.79099C21.5396 5.33449 21.6592 5.91573 21.6592 6.50183H23.6592ZM23.1441 4.00196C22.8043 3.21063 22.3074 2.49403 21.6834 1.89211L20.2948 3.33154C20.7298 3.75114 21.0729 4.24739 21.3063 4.79099L23.1441 4.00196ZM1.97514 11.1114L11.1349 19.9514L12.5238 18.5123L3.36401 9.67227L1.97514 11.1114ZM12.5238 19.9514L21.6835 11.1114L20.2947 9.67227L11.1349 18.5123L12.5238 19.9514Z" fill="#555555"/>
</svg>
